<svg id="visual" viewBox="0 0 1980 1080" width="1980" height="1080" xmlns="http://www.w3.org/2000/svg" xmlns:xlink="http://www.w3.org/1999/xlink" version="1.1"><g><g transform="translate(676 599)"><path d="M0 -63.6L49.7 -39.6L62 14.1L27.6 57.3L-27.6 57.3L-62 14.1L-49.7 -39.6Z" fill="#313131"></path></g><g transform="translate(268 618)"><path d="M0 -51L39.9 -31.8L49.7 11.3L22.1 45.9L-22.1 45.9L-49.7 11.3L-39.9 -31.8Z" fill="#313131"></path></g><g transform="translate(940 150)"><path d="M0 -31L24.2 -19.3L30.2 6.9L13.5 27.9L-13.5 27.9L-30.2 6.9L-24.2 -19.3Z" fill="#313131"></path></g><g transform="translate(1468 832)"><path d="M0 -36L28.1 -22.4L35.1 8L15.6 32.4L-15.6 32.4L-35.1 8L-28.1 -22.4Z" fill="#313131"></path></g><g transform="translate(1910 87)"><path d="M0 -30L23.5 -18.7L29.2 6.7L13 27L-13 27L-29.2 6.7L-23.5 -18.7Z" fill="#313131"></path></g><g transform="translate(1215 612)"><path d="M0 -45L35.2 -28.1L43.9 10L19.5 40.5L-19.5 40.5L-43.9 10L-35.2 -28.1Z" fill="#313131"></path></g><g transform="translate(1733 874)"><path d="M0 -55L43 -34.3L53.6 12.2L23.9 49.6L-23.9 49.6L-53.6 12.2L-43 -34.3Z" fill="#313131"></path></g><g transform="translate(1522 996)"><path d="M0 -18L14.1 -11.2L17.5 4L7.8 16.2L-7.8 16.2L-17.5 4L-14.1 -11.2Z" fill="#313131"></path></g><g transform="translate(1803 417)"><path d="M0 -21L16.4 -13.1L20.5 4.7L9.1 18.9L-9.1 18.9L-20.5 4.7L-16.4 -13.1Z" fill="#313131"></path></g><g transform="translate(723 241)"><path d="M0 -20L15.6 -12.5L19.5 4.5L8.7 18L-8.7 18L-19.5 4.5L-15.6 -12.5Z" fill="#313131"></path></g><g transform="translate(51 695)"><path d="M0 -18L14.1 -11.2L17.5 4L7.8 16.2L-7.8 16.2L-17.5 4L-14.1 -11.2Z" fill="#313131"></path></g><g transform="translate(1443 365)"><path d="M0 -49L38.3 -30.6L47.8 10.9L21.3 44.1L-21.3 44.1L-47.8 10.9L-38.3 -30.6Z" fill="#313131"></path></g><g transform="translate(569 716)"><path d="M0 -58L45.3 -36.2L56.5 12.9L25.2 52.3L-25.2 52.3L-56.5 12.9L-45.3 -36.2Z" fill="#313131"></path></g><g transform="translate(513 26)"><path d="M0 -38L29.7 -23.7L37 8.5L16.5 34.2L-16.5 34.2L-37 8.5L-29.7 -23.7Z" fill="#313131"></path></g><g transform="translate(107 175)"><path d="M0 -36L28.1 -22.4L35.1 8L15.6 32.4L-15.6 32.4L-35.1 8L-28.1 -22.4Z" fill="#313131"></path></g><g transform="translate(1300 862)"><path d="M0 -62L48.5 -38.7L60.4 13.8L26.9 55.9L-26.9 55.9L-60.4 13.8L-48.5 -38.7Z" fill="#313131"></path></g><g transform="translate(790 516)"><path d="M0 -15L11.7 -9.4L14.6 3.3L6.5 13.5L-6.5 13.5L-14.6 3.3L-11.7 -9.4Z" fill="#313131"></path></g><g transform="translate(216 399)"><path d="M0 -17L13.3 -10.6L16.6 3.8L7.4 15.3L-7.4 15.3L-16.6 3.8L-13.3 -10.6Z" fill="#313131"></path></g><g transform="translate(1716 97)"><path d="M0 -40L31.3 -24.9L39 8.9L17.4 36L-17.4 36L-39 8.9L-31.3 -24.9Z" fill="#313131"></path></g><g transform="translate(463 594)"><path d="M0 -35L27.4 -21.8L34.1 7.8L15.2 31.5L-15.2 31.5L-34.1 7.8L-27.4 -21.8Z" fill="#313131"></path></g><g transform="translate(1861 733)"><path d="M0 -60L46.9 -37.4L58.5 13.4L26 54.1L-26 54.1L-58.5 13.4L-46.9 -37.4Z" fill="#313131"></path></g><g transform="translate(425 242)"><path d="M0 -28L21.9 -17.5L27.3 6.2L12.1 25.2L-12.1 25.2L-27.3 6.2L-21.9 -17.5Z" fill="#313131"></path></g><g transform="translate(700 98)"><path d="M0 -58L45.3 -36.2L56.5 12.9L25.2 52.3L-25.2 52.3L-56.5 12.9L-45.3 -36.2Z" fill="#313131"></path></g><g transform="translate(1695 570)"><path d="M0 -36L28.1 -22.4L35.1 8L15.6 32.4L-15.6 32.4L-35.1 8L-28.1 -22.4Z" fill="#313131"></path></g><g transform="translate(512 937)"><path d="M0 -60L46.9 -37.4L58.5 13.4L26 54.1L-26 54.1L-58.5 13.4L-46.9 -37.4Z" fill="#313131"></path></g><g transform="translate(130 882)"><path d="M0 -50L39.1 -31.2L48.7 11.1L21.7 45L-21.7 45L-48.7 11.1L-39.1 -31.2Z" fill="#313131"></path></g><g transform="translate(1939 323)"><path d="M0 -46L36 -28.7L44.8 10.2L20 41.4L-20 41.4L-44.8 10.2L-36 -28.7Z" fill="#313131"></path></g><g transform="translate(1819 1043)"><path d="M0 -17L13.3 -10.6L16.6 3.8L7.4 15.3L-7.4 15.3L-16.6 3.8L-13.3 -10.6Z" fill="#313131"></path></g><g transform="translate(798 1031)"><path d="M0 -44L34.4 -27.4L42.9 9.8L19.1 39.6L-19.1 39.6L-42.9 9.8L-34.4 -27.4Z" fill="#313131"></path></g><g transform="translate(1425 175)"><path d="M0 -35L27.4 -21.8L34.1 7.8L15.2 31.5L-15.2 31.5L-34.1 7.8L-27.4 -21.8Z" fill="#313131"></path></g><g transform="translate(1176 231)"><path d="M0 -43L33.6 -26.8L41.9 9.6L18.7 38.7L-18.7 38.7L-41.9 9.6L-33.6 -26.8Z" fill="#313131"></path></g><g transform="translate(340 97)"><path d="M0 -36L28.1 -22.4L35.1 8L15.6 32.4L-15.6 32.4L-35.1 8L-28.1 -22.4Z" fill="#313131"></path></g><g transform="translate(1195 1005)"><path d="M0 -27L21.1 -16.8L26.3 6L11.7 24.3L-11.7 24.3L-26.3 6L-21.1 -16.8Z" fill="#313131"></path></g></g></svg>